<?xml version="1.0" encoding="UTF-8" standalone="no"?>
<svg
   version="1.0"
   width="1280.000000pt"
   height="1217.000000pt"
   viewBox="0 0 1280.000000 1217.000000"
   preserveAspectRatio="xMidYMid meet"
   id="svg10"
   sodipodi:docname="Sol.svg"
   inkscape:version="1.2.1 (9c6d41e410, 2022-07-14)"
   xmlns:inkscape="http://www.inkscape.org/namespaces/inkscape"
   xmlns:sodipodi="http://sodipodi.sourceforge.net/DTD/sodipodi-0.dtd"
   xmlns="http://www.w3.org/2000/svg"
   xmlns:svg="http://www.w3.org/2000/svg">
  <defs
     id="defs14" />
  <sodipodi:namedview
     id="namedview12"
     pagecolor="#ffffff"
     bordercolor="#000000"
     borderopacity="0.25"
     inkscape:showpageshadow="2"
     inkscape:pageopacity="0.0"
     inkscape:pagecheckerboard="0"
     inkscape:deskcolor="#d1d1d1"
     inkscape:document-units="pt"
     showgrid="false"
     inkscape:zoom="0.50164339"
     inkscape:cx="965.82555"
     inkscape:cy="309.98116"
     inkscape:window-width="1920"
     inkscape:window-height="1001"
     inkscape:window-x="-9"
     inkscape:window-y="-9"
     inkscape:window-maximized="1"
     inkscape:current-layer="svg10" />
  <metadata
     id="metadata2">
Created by potrace 1.15, written by Peter Selinger 2001-2017
</metadata>
  <g
     id="g903"
     transform="matrix(0.37291129,0,0,0.36183638,-237.03055,-214.35947)">
    <path
       d="m 449.6,23.9 c 0.3,1.2 1.5,5.3 2.5,9 9,30.9 16.4,70 19,100.1 1.5,16.9 0.6,48.3 -1.6,60.5 -4.6,25.1 -15.3,43.5 -29.3,50.1 -7.4,3.6 -18.8,4.4 -28.2,2 -9.7,-2.4 -23.8,-9.8 -35.3,-18.4 -14.9,-11.1 -37.3,-34.1 -52.5,-53.7 -3.3,-4.3 -1.6,-1.2 3.8,7 17.3,25.9 31.1,56 35.5,77.5 2.4,11.5 1.7,28.2 -1.4,36.2 -4.4,11.2 -15.4,20 -29.2,23.3 -7.5,1.7 -27.3,2 -36.9,0.5 -37.8,-6.1 -88.3,-28.8 -143.5,-64.6 -7.1,-4.6 -11.2,-7 -9.1,-5.2 2.2,1.8 9.4,7.7 16,13.1 54.5,44.4 92,89.7 104.8,126.8 3,8.6 3.2,10.4 3.3,21.9 0,12.1 -0.1,12.7 -3.2,19.1 -5.8,11.6 -16.2,18.9 -33.1,23.1 -7.3,1.8 -11.6,2.2 -26.2,2.2 -21.7,0 -41.2,-2.9 -69,-10.3 -4.1,-1.1 -7.6,-1.9 -7.7,-1.7 -0.1,0.1 4.8,2.2 11,4.5 16.5,6.3 39.7,18 51.7,25.9 18.8,12.5 29.4,23.2 35.8,36.1 3.2,6.6 3.7,8.6 4,16 0.3,6.9 0,9.7 -1.8,14.3 -13.9,37.2 -86.6,63.1 -192,68.5 l -14.5,0.7 20.7,1.3 c 99.2,5.9 167,29.6 184,64.1 3.1,6.2 3.3,7.4 3.3,16.7 0,9.6 -0.2,10.5 -3.7,17.6 -6.3,12.6 -17.5,24 -35.7,36 -12,7.9 -35.6,19.8 -51.8,26 -11.6,4.4 -14.3,6 -5.7,3.4 7,-2.2 35.3,-8.1 45.9,-9.6 5,-0.8 16.7,-1.3 26,-1.3 14.1,0 18.5,0.4 25.8,2.2 17.2,4.3 28,11.9 33.2,23.4 4,8.7 4.6,21.9 1.7,33.5 -5.3,20.8 -18.3,43.4 -40.3,69.8 -16.9,20.3 -50.9,52.4 -77.2,72.8 -4.8,3.8 -8.7,7.1 -8.7,7.3 0,0.2 5.3,-3.1 11.8,-7.4 47.9,-32 93.4,-53.7 132.2,-62.9 14.2,-3.3 38.2,-4.3 48.4,-1.9 14.3,3.4 25.3,12 29.7,23.4 3.1,8 3.8,24.7 1.4,36.2 -4,19.7 -16.1,46.9 -32,72 -4.7,7.4 -7.5,12.3 -6.3,10.9 1.3,-1.4 7,-8.1 12.7,-14.8 24.7,-29 50.4,-48.6 71.9,-55.1 10.1,-3.1 22.2,-2.5 30.3,1.3 14.3,6.9 24.7,24.7 29.5,50.7 2.3,11.9 2.6,54.8 0.6,71 -3.3,26.8 -9.8,59 -17.1,85.5 -2.2,7.7 -3.8,14.1 -3.7,14.2 0.1,0.2 2.2,-5 4.6,-11.5 18.5,-50.1 43.3,-96.2 66.6,-124.2 22.9,-27.5 46.9,-41.4 65.5,-38.1 23.2,4 39.6,28.7 47.9,72.1 2.5,12.9 5,34.2 5,43.2 0,3.9 0.4,6.8 1,6.8 0.6,0 1,-2.9 1,-6.8 0,-9.1 2.5,-30.3 5,-43.5 17.6,-91.3 71.9,-96.7 128.9,-12.7 18,26.5 35.5,61.7 50.7,102.2 2.6,7 4.9,12.7 5,12.5 0.2,-0.1 -0.8,-4.1 -2.2,-8.7 -9.3,-31.9 -17,-72 -19.5,-102 -1.4,-17 -0.6,-48.5 1.6,-60.5 4.6,-25.3 15.2,-43.4 29.4,-50.2 8.1,-3.8 20.2,-4.4 30.3,-1.3 22.5,6.8 50.8,29.3 77.2,61.3 4.9,5.9 9,10.7 9.2,10.7 0.1,0 -3.4,-5.7 -7.9,-12.7 -16.1,-25.2 -29.5,-55.7 -32.8,-74.6 -1.7,-10.1 -0.7,-26.9 2,-33.9 4.4,-11.4 15.4,-20 29.7,-23.4 10.2,-2.4 34.2,-1.4 48.4,1.9 37.5,8.9 81.4,29.6 128.3,60.3 8.6,5.7 15.7,10.2 15.7,9.9 0,-0.2 -3.9,-3.4 -8.7,-7.2 -26.6,-20.7 -60.2,-52.3 -77.2,-72.8 -22,-26.4 -35,-49 -40.3,-69.8 -1.6,-6.2 -1.9,-10.2 -1.6,-18.1 0.4,-8.9 0.8,-10.8 3.5,-16.2 5.8,-11.2 16.4,-18.4 33,-22.6 7.3,-1.8 11.7,-2.2 25.8,-2.2 9.4,0 21.1,0.5 26,1.3 10.6,1.5 38.9,7.4 45.9,9.6 8.6,2.6 5.9,1 -5.7,-3.4 -16.2,-6.2 -39.8,-18.1 -51.8,-26 -18.2,-12 -29.4,-23.4 -35.7,-36 -3.5,-7.1 -3.7,-8 -3.7,-17.6 0,-9.3 0.2,-10.5 3.3,-16.7 17,-34.5 85.2,-58.3 183.7,-64.1 l 21,-1.2 -21,-1.3 c -57.8,-3.4 -103.4,-12.3 -137.4,-27.1 -24.8,-10.7 -42.4,-25.7 -48.1,-40.9 -1.8,-4.6 -2.1,-7.4 -1.8,-14.3 0.3,-7.4 0.8,-9.4 4,-16 6.5,-13.1 16.6,-23.3 35.8,-36.1 12,-7.9 35.2,-19.6 51.7,-25.9 6.2,-2.3 11.1,-4.4 11,-4.5 -0.1,-0.2 -3.6,0.6 -7.7,1.7 -27.8,7.4 -47.3,10.3 -69,10.3 -14.6,0 -18.9,-0.4 -26.2,-2.2 -16.5,-4.1 -27.3,-11.5 -33.1,-22.7 -3.1,-5.8 -3.2,-6.3 -3.2,-19 0,-12.1 0.3,-13.7 3.3,-22.4 12.9,-37.1 50.4,-82.5 104.8,-126.8 6.6,-5.4 13.8,-11.3 16,-13.1 2.1,-1.8 -1.9,0.6 -9.1,5.2 -34,22.1 -73.2,42.7 -99.5,52.5 -13.9,5.1 -32.5,10.2 -44,12.1 -9.6,1.5 -29.4,1.2 -36.9,-0.5 -13.8,-3.3 -24.8,-12.1 -29.2,-23.3 -3.1,-7.8 -3.8,-24.8 -1.5,-36.1 4.3,-21.2 18.3,-51.9 35.6,-77.6 8.7,-13.1 8.2,-12.7 -4.6,3 -19.9,24.7 -45.3,46.9 -63.6,55.9 -12.3,6.1 -20.1,7.9 -30.3,7.4 -10.6,-0.6 -17.5,-3.8 -24.7,-11.6 -9,-9.8 -14.9,-23.2 -18.5,-42.2 -2.2,-11.9 -2.5,-56.9 -0.5,-72 4,-29.5 10.8,-62.9 17.6,-86.5 1.9,-6.6 3.4,-12.1 3.2,-12.2 -0.1,-0.1 -2.8,6.6 -6,15 -23.8,62.1 -50.8,108.4 -79,135.5 -18.5,17.8 -37.5,26.2 -52.2,23.2 -23.3,-4.8 -39.1,-28.7 -47.4,-72 -2.5,-12.9 -5,-34.2 -5,-43.3 0,-11.3 -1.7,-7.4 -2.3,5.5 -0.9,15.9 -4,37 -7.7,51.2 -9,35.2 -23.8,54.6 -44.5,58.6 -7.8,1.5 -18.1,-0.5 -28,-5.5 -34,-16.9 -70.8,-70.6 -100.4,-146.5 -4,-10.2 -7.6,-19.4 -8.2,-20.5 -0.8,-1.8 -0.8,-1.7 -0.3,0.4 z m 231.2,308 C 797.3,349.8 890.2,437.5 914,552 c 4,19.7 5.4,33.7 5.4,57 0,30.9 -3.1,52.5 -11.4,80 -13.7,45.6 -36.2,83.2 -70,117.1 -23.7,23.8 -45.8,39.8 -74.5,53.9 -78.9,38.9 -169.1,38.9 -248,0 -28.7,-14.1 -50.8,-30.1 -74.6,-53.9 -45.1,-45.3 -71.9,-100.7 -80,-165.6 -1.6,-12.9 -1.6,-50.1 0,-63 7.8,-62.7 34,-118.3 76.4,-162.2 15.5,-16 28.6,-27 46.2,-38.8 36.1,-24.2 76.1,-39.4 117.5,-44.9 18,-2.4 18.2,-2.4 43,-2.1 17.4,0.2 27,0.9 36.8,2.4 z"
       id="path4"
       style="display:inline;fill:#c83737;stroke:none;stroke-width:0.1" />
    <path
       d="m 524.79721,3.1739378 c 0.14615,1.2282672 0.8191,5.4469331 1.34413,9.2435562 5.02817,31.788795 7.43422,71.510089 6.21453,101.697546 -0.64493,16.95417 -5.5007,47.9895 -9.22286,59.81428 -7.73106,24.31873 -20.66775,41.22116 -35.38878,46.00146 -7.79518,2.63726 -19.20499,1.99208 -28.22692,-1.57509 -9.31954,-3.60504 -22.37284,-12.72541 -32.69548,-22.70805 -13.37994,-12.89176 -32.69801,-38.53493 -45.30277,-59.89658 -2.73091,-4.6821 -1.43575,-1.39234 2.88615,7.42362 13.89285,27.87632 23.78361,59.47731 25.43493,81.36071 0.9294,11.71094 -1.8727,28.18906 -5.95758,35.73384 -5.77836,10.55512 -17.80104,17.89645 -31.90718,19.42838 -7.65458,0.73984 -27.33412,-1.4615 -36.66804,-4.16112 -36.72786,-10.82193 -83.9591,-39.71397 -134.19941,-82.19445 -6.46267,-5.4593 -10.22698,-8.35756 -8.37095,-6.30692 1.95523,2.06327 8.35302,8.8248 14.21872,15.0146 48.46051,50.92336 79.94338,100.59397 87.95866,139.01278 1.89062,8.90986 1.86184,10.72071 0.50963,22.14137 -1.52713,12.00324 -1.70205,12.58582 -5.585,18.5434 -7.21765,10.77523 -18.45581,16.70428 -35.75075,18.73776 -7.46881,0.86428 -11.78491,0.71838 -26.26816,-1.12427 -21.52648,-2.73874 -40.50454,-8.07663 -67.1483,-18.92607 -3.92838,-1.60866 -7.29943,-2.844 -7.42387,-2.65822 -0.11182,0.0866 4.48396,2.78822 10.3441,5.85232 15.57294,8.33207 37.11078,22.86657 48.01777,32.21791 17.07206,14.77278 26.23686,26.72503 30.95758,40.32962 2.34143,6.95109 2.58502,8.9982 1.94867,16.37689 -0.57324,6.88269 -1.22423,9.62244 -3.5904,13.95848 -18.48383,35.14823 -93.87131,51.66572 -199.11003,43.72009 l -14.4724,-1.13563 20.370404,3.90214 c 97.662136,18.37277 161.928826,50.44023 174.438676,86.80991 2.29271,6.54168 2.33966,7.75732 1.16592,16.98296 -1.21161,9.52323 -1.5236,10.39079 -5.8917,16.99229 -7.83986,11.70412 -20.38908,21.59942 -39.95806,31.20646 -12.9011,6.32232 -37.81427,15.14863 -54.66723,19.25446 -12.06256,2.90079 -14.9429,4.14723 -6.08353,2.65342 7.22169,-1.29894 36.04003,-3.58004 46.74458,-3.73023 5.06098,-0.16256 16.73053,0.81809 25.95616,1.99183 13.98726,1.77955 18.30159,2.73167 25.31604,5.4386 16.51976,6.43642 26.27421,15.3387 29.98123,27.40303 2.86999,9.13527 1.79923,22.30545 -2.5416,33.44668 -7.88277,19.96477 -23.63115,40.74333 -48.78715,64.15563 -19.32691,18.00474 -57.10634,45.55694 -85.77071,62.47452 -5.24121,3.16381 -9.526514,5.9452 -9.551756,6.14361 -0.02524,0.1984 5.648866,-2.40631 12.639586,-5.85156 51.55567,-25.6987 99.43058,-41.48267 139.08144,-45.71219 14.50295,-1.48144 38.43724,0.55558 48.25278,4.22372 13.75654,5.1776 23.58318,15.09714 26.50921,26.9613 2.06554,8.32728 0.65225,24.98208 -3.17996,36.08722 -6.45434,19.03764 -21.89046,44.49296 -40.83119,67.38562 -5.59636,6.74765 -8.9924,11.25508 -7.6253,10.01773 1.4663,-1.22474 7.96632,-7.15177 14.46634,-13.0788 28.16257,-25.65079 56.13076,-41.85049 78.2792,-45.58502 10.41048,-1.8005 22.338,0.32184 29.89364,5.11375 13.3148,8.64961 21.38512,27.61985 22.86529,54.0178 0.77972,12.09517 -4.33705,54.68997 -8.36564,70.50797 -6.65602,26.1692 -17.16798,57.2914 -27.75415,82.6582 -3.15422,7.3607 -5.54916,13.5076 -5.46258,13.6194 0.074,0.2111 2.81345,-4.6823 6.01462,-10.8275 24.67515,-47.3645 55.09508,-89.9658 81.74262,-114.8013 26.18764,-24.3899 51.75003,-35.1497 69.78484,-29.5286 22.50965,6.8961 35.66114,33.4684 38.41729,77.5689 0.85191,13.1123 0.64367,34.5575 -0.49221,43.4856 -0.49222,3.8688 -0.46142,6.7961 0.13378,6.8718 0.5952,0.076 1.35801,-2.7506 1.85022,-6.6194 1.14851,-9.0272 6.30415,-29.7422 10.45012,-42.5211 28.98216,-88.34868 83.52949,-86.8524 129.47213,3.6699 14.51152,28.5599 27.42902,65.687 37.39601,107.7816 1.69574,7.2721 3.25796,13.2168 3.3824,13.0311 0.21102,-0.074 -0.27614,-4.1682 -1.08439,-8.9081 -5.19956,-32.8187 -7.777,-73.5699 -6.47073,-103.6455 0.75675,-17.0407 5.52594,-48.1879 9.22285,-59.8143 7.75632,-24.5172 20.55594,-41.1346 35.50062,-46.08806 8.51482,-2.74732 20.59379,-1.81539 30.22178,2.53454 21.46186,9.58532 46.69586,35.47712 68.84605,70.55322 4.11619,6.4712 7.5776,11.7503 7.776,11.7756 0.0992,0.013 -2.65342,-6.0836 -6.23397,-13.5955 -12.79078,-27.0306 -22.23425,-58.9779 -23.12251,-78.14322 -0.4117,-10.23379 2.70062,-26.77325 6.26249,-33.37651 5.8036,-10.75352 17.80104,-17.89645 32.41581,-19.46447 10.42134,-1.09348 34.10321,2.92755 47.77318,7.99333 36.07683,13.56167 77.01326,39.63673 119.66366,76.01047 7.8118,6.7398 14.2871,12.0999 14.3249,11.8023 0.025,-0.1984 -3.4397,-3.865 -7.7217,-8.2404 -23.7748,-23.89169 -53.1179,-59.47963 -67.3946,-81.96126 -18.4922,-28.9655 -28.53592,-53.0255 -31.16839,-74.32808 -0.80471,-6.35236 -0.59747,-10.35824 0.69718,-18.15721 1.52006,-8.77834 2.15666,-10.61267 5.5166,-15.62872 7.16716,-10.37843 18.59111,-16.18304 35.58841,-18.25438 7.4688,-0.86428 11.8841,-0.70576 25.8714,1.07378 9.3248,1.18637 20.8682,3.15902 25.628,4.57105 10.3259,2.82582 37.655,12.25036 44.3214,15.31623 8.2031,3.66461 5.7266,1.73664 -5.2253,-4.0922 -15.288,-8.19501 -37.1974,-22.97839 -48.1044,-32.32973 -16.5399,-14.20105 -26.2116,-26.92344 -30.871,-40.2178 -2.5759,-7.48496 -2.6607,-8.403 -1.4491,-17.92624 1.1737,-9.22563 1.5236,-10.39079 5.3813,-16.14997 21.2183,-32.07857 91.8767,-47.08079 190.3211,-40.40281 l 20.9835,1.45998 -20.668,-3.93999 c -56.9087,-10.6677 -101.0208,-25.25167 -132.8811,-44.22444 -23.2512,-13.74442 -38.8173,-30.84576 -42.5534,-46.64361 -1.205,-4.79039 -1.1492,-7.60586 0.019,-14.41283 1.2316,-7.30296 1.98,-9.22386 5.9874,-15.36722 8.1013,-12.17489 19.4079,-21.01861 40.0699,-31.29304 12.901,-6.32232 37.3922,-15.00071 54.5554,-19.16788 6.4407,-1.49912 11.5665,-2.9639 11.4799,-3.07572 -0.074,-0.21102 -3.6469,0.14085 -7.8529,0.7146 -28.5117,3.83221 -48.2218,4.24794 -69.7482,1.5092 -14.4833,-1.84265 -18.6984,-2.78215 -25.7129,-5.48909 -15.8506,-6.14966 -25.6303,-14.85355 -29.9704,-26.696 -2.3432,-6.14487 -2.3793,-6.65349 -0.7764,-19.25194 1.5271,-12.00324 2.0267,-13.55259 6.1007,-21.80439 17.4792,-35.17524 60.4092,-75.47936 119.9653,-112.55935 7.2288,-4.52384 15.1158,-9.46795 17.5254,-10.9759 2.3104,-1.52057 -1.9605,0.35541 -9.6835,4.00992 -36.5174,17.63217 -78.0038,33.12004 -105.3304,39.52238 -14.4325,3.30491 -33.5274,6.01664 -45.1752,6.45005 -9.7126,0.27639 -29.31637,-2.52015 -36.54185,-5.15312 -13.27316,-5.0153 -23.07456,-15.13323 -26.02583,-26.79899 -2.09078,-8.12888 -0.63963,-25.08129 3.06815,-36.00065 6.94124,-20.48778 24.70392,-49.17536 45.10913,-72.48644 10.2838,-11.89723 9.7373,-11.56353 -4.94182,2.39545 -22.85824,21.99093 -50.85697,40.8077 -70.14652,47.4261 -12.97152,4.49885 -20.93633,5.30003 -30.99166,3.51669 -10.43951,-1.93302 -16.88047,-5.97827 -23.03847,-14.62461 -7.69118,-10.85751 -11.8528,-24.895 -13.02604,-44.19742 -0.68052,-12.0825 4.70129,-56.76053 8.59106,-71.48737 7.69118,-28.75927 18.65219,-61.033971 28.37635,-83.587035 2.71779,-6.307427 4.89995,-11.574134 4.71417,-11.698576 -0.0866,-0.111821 -3.61059,6.193839 -7.84516,14.1228 -31.44728,58.599651 -64.07486,101.121771 -95.46963,124.445981 -20.59859,15.32279 -40.50682,21.25765 -54.71064,16.42636 -22.50788,-7.70229 -35.16514,-33.40528 -37.93392,-77.40657 -0.85191,-13.11237 -0.64366,-34.557578 0.50484,-43.584811 1.42616,-11.209641 -0.75246,-7.555382 -2.97576,5.165739 -2.89953,15.659272 -8.63775,36.199302 -14.10033,49.818782 -13.3706,33.78265 -30.50071,51.15962 -51.54002,52.51511 -7.92697,0.50357 -17.89219,-2.78039 -27.08198,-8.98988 C 580.20478,161.12995 550.47647,103.21486 530.69244,24.185989 528.01176,13.562715 525.60167,3.9819286 525.1453,2.8149991 524.57887,0.92842523 524.56625,1.0276256 524.79721,3.1739378 Z M 715.27607,337.89063 c 113.30928,32.46023 194.39788,131.18378 203.55662,247.77197 1.48169,20.04731 1.10357,34.11205 -1.8371,57.22574 -3.89986,30.65291 -9.70119,51.68894 -21.40557,77.92151 -19.34559,43.5063 -46.41114,77.96593 -84.21935,107.32899 -26.51427,20.61853 -50.45689,33.70136 -80.70695,44.06641 -83.17862,28.63104 -172.65735,17.24698 -246.01693,-31.29987 -26.69096,-17.60945 -46.59489,-36.27073 -67.2008,-62.8842 -39.02209,-50.6298 -58.6158,-108.9692 -58.46006,-174.37254 0.0409,-12.99878 4.73587,-49.90131 7.95117,-62.49623 15.65095,-61.21419 48.65867,-113.06292 96.26021,-151.26061 17.3954,-13.91582 31.77895,-23.17452 50.72748,-32.65888 38.86559,-19.45034 80.46412,-29.48043 122.22725,-29.71139 18.15897,-0.10904 18.35737,-0.0838 42.9212,3.34379 17.23562,2.39444 26.67051,4.30045 36.20283,7.02531 z"
       id="path4-4"
       style="fill:#ff6600;stroke:none;stroke-width:0.1" />
    <path
       d="m 397.16914,45.094698 c 0.40772,1.167795 1.97505,5.141901 3.30688,8.735812 11.76857,29.95515 22.68832,68.2217 28.01069,97.96129 3.02834,16.69398 4.98321,48.04599 3.90007,60.39535 -2.30189,25.414 -11.28695,44.70956 -24.62983,52.55351 -7.04255,4.25705 -18.32282,6.08888 -27.90191,4.55233 -9.87785,-1.50932 -24.59153,-7.59845 -36.82491,-15.11872 -15.84635,-9.70121 -40.24224,-30.57226 -57.15915,-48.71112 -3.67681,-3.98258 -1.70235,-1.04976 4.41991,6.62604 19.58029,24.22216 36.05639,52.94476 42.39044,73.95642 3.43429,11.23457 4.25356,27.92915 1.89277,36.17758 -3.36485,11.55326 -13.52036,21.31572 -26.96371,25.85514 -7.31465,2.37399 -27.00562,4.47061 -36.70217,3.84849 -38.19773,-2.64253 -90.55031,-20.6633 -148.77295,-51.3032 -7.48836,-3.93631 -11.78934,-5.95411 -9.53458,-4.35223 2.35436,1.59281 10.06034,6.81467 17.1234,11.59307 58.30643,39.26794 99.76481,80.97577 115.88064,116.76026 3.76851,8.29207 4.13112,10.06647 5.27491,21.50989 1.09869,12.05001 1.05359,12.65661 -1.45248,19.31166 -4.72275,12.07872 -14.41694,20.2929 -30.86576,26.01008 -7.10641,2.45542 -11.35232,3.24421 -25.89201,4.5699 -21.61036,1.97038 -41.29312,0.85298 -69.65022,-3.99218 -4.18294,-0.72317 -7.74112,-1.20207 -7.82255,-0.99382 -0.0905,0.10869 4.97994,1.75508 11.36317,3.48261 17.00388,4.77575 41.17042,14.32084 53.83817,21.0986 19.85736,10.7413 31.38514,20.43461 38.93003,32.7002 3.78606,6.28217 4.46561,8.2285 5.43629,15.57069 0.92529,6.84426 0.88077,9.65994 -0.49411,14.40438 -10.46478,38.30846 -80.51271,70.7027 -184.98699,85.65081 l -14.376541,2.01372 20.732528,-0.58494 c 99.325943,-3.13183 168.997843,14.31395 189.060253,47.12782 3.65016,5.89291 3.9583,7.06979 4.80275,16.33137 0.87169,9.56034 0.75423,10.47478 -2.08662,17.86326 -5.12989,13.11999 -15.24849,25.48987 -32.28369,39.09288 -11.23311,8.95698 -33.65508,22.95073 -49.2252,30.59609 -11.15255,5.43511 -13.69611,7.27366 -5.36773,3.90352 6.77133,-2.82652 34.4187,-11.27181 44.83871,-13.72811 4.9067,-1.2507 16.51297,-2.811 25.77454,-3.65545 14.04177,-1.2803 18.45991,-1.28148 25.89319,-0.15176 17.51939,2.72046 28.96487,9.30841 35.1876,20.28874 4.77344,8.30086 6.56954,21.39186 4.73481,33.20725 -3.38944,21.19533 -14.28364,44.88238 -33.79562,73.17095 -14.98692,21.75068 -45.93175,56.8053 -70.27078,79.50912 -4.43513,4.2201 -8.01937,7.8606 -8.00122,8.0598 0.0182,0.1991 4.99663,-3.5685 11.07934,-8.4409 44.79649,-36.21716 88.13816,-61.95897 125.9425,-74.64405 13.84171,-4.57574 37.65176,-7.75083 48.02755,-6.28691 14.54965,2.08749 26.2851,9.65317 31.70205,20.60654 3.81361,7.68549 6.02709,24.25293 4.68121,35.92331 -2.19469,19.98191 -11.77492,48.16811 -25.33013,74.60831 -4.00867,7.7961 -6.35219,12.9301 -5.28425,11.427 1.1675,-1.5123 6.23559,-8.7022 11.30368,-15.8921 21.96475,-31.123 45.77888,-52.9756 66.59987,-61.40093 9.77678,-4.00428 21.88127,-4.50549 30.29286,-1.45668 14.86744,5.57303 26.84076,22.35521 33.98174,47.81191 3.37104,11.6421 7.56516,54.3376 7.0444,70.6523 -0.85291,26.9889 -4.40226,59.6461 -9.26587,86.6995 -1.49176,7.8679 -2.50402,14.3868 -2.39536,14.4773 0.11781,0.1901 1.73692,-5.1791 3.53678,-11.8702 13.87446,-51.5729 34.3861,-99.7342 55.04741,-129.7343 20.30838,-29.4657 42.9471,-45.4875 61.76994,-43.89 23.46738,1.8769 42.04241,24.9857 54.24888,67.4528 3.66099,12.6196 8.08473,33.6046 8.90195,42.5675 0.35412,3.8839 1.0158,6.7356 1.61331,6.6811 0.59758,-0.054 0.73255,-2.9788 0.37842,-6.8627 -0.82628,-9.0624 -0.2616,-30.4019 1.02951,-43.7743 9.23716,-92.521 62.82251,-102.82922 127.21435,-24.3518 20.33185,24.7561 40.95573,58.2216 59.77041,97.1742 3.22491,6.7349 6.03296,12.2026 6.11436,11.9944 0.19006,-0.1178 -1.16894,-4.0105 -2.98089,-8.4643 -12.15808,-30.9238 -23.46746,-70.159 -28.68112,-99.8081 -2.93787,-16.8026 -5.00141,-48.2452 -3.90013,-60.3954 2.2838,-25.61321 11.19651,-44.60088 24.72042,-52.66221 7.72147,-4.51977 19.71703,-6.21602 30.05672,-4.04582 23.02453,4.72885 53.25065,24.56623 82.44724,54.03693 5.41549,5.4307 9.93439,9.8386 10.13357,9.8205 0.0995,-0.01 -3.90351,-5.3678 -9.02056,-11.9302 -18.32172,-23.63415 -34.43572,-52.79142 -39.43826,-71.31364 -2.61006,-9.90388 -3.13968,-26.72533 -1.08642,-33.94162 3.3467,-11.75241 13.52034,-21.31565 27.45258,-26.00005 9.9399,-3.31627 33.93158,-4.49965 48.37258,-2.50265 38.1532,5.45824 83.7515,22.08649 133.2454,48.40114 9.0819,4.89557 16.5612,8.73227 16.5339,8.43352 -0.018,-0.19912 -4.1926,-3.0318 -9.3177,-6.38025 -28.3698,-18.19923 -64.7003,-46.6178 -83.4915,-65.48946 -24.3062,-24.29334 -39.3047,-45.61955 -46.4714,-65.85237 -2.1563,-6.02911 -2.8183,-9.98534 -3.2369,-17.87994 -0.4098,-8.89956 -0.184,-10.82804 2.0145,-16.45088 4.7591,-11.68039 14.6616,-19.81315 30.8116,-25.50308 7.1064,-2.45541 11.4519,-3.25328 25.4937,-4.5336 9.3612,-0.85351 21.0582,-1.41794 26.0106,-1.06616 10.6925,0.5313 39.4112,3.83727 46.5821,5.39257 8.8006,1.80837 5.9664,0.46014 -5.9852,-2.86839 -16.6961,-4.7034 -41.2791,-14.41134 -53.9469,-21.1891 -19.2142,-10.29788 -31.4033,-20.63379 -38.8213,-32.60969 -4.1302,-6.75287 -4.4111,-7.63099 -5.2828,-17.19134 -0.8445,-9.26157 -0.7542,-10.47478 1.77,-16.93065 13.7971,-35.90111 79.5543,-65.79541 177.1208,-80.51535 l 20.8044,-3.10189 -21.0313,0.6122 c -57.87,1.86234 -104.0897,-2.86037 -139.2932,-14.51199 -25.6691,-8.40394 -44.5584,-21.74389 -51.6151,-36.36352 -2.2102,-4.41756 -2.7631,-7.17876 -3.0911,-14.07745 -0.3732,-7.39668 -0.057,-9.43381 2.5306,-16.29711 5.2836,-13.63608 14.4157,-24.71102 32.3743,-39.20155 11.233,-8.95696 33.2748,-22.71522 49.1345,-30.4874 5.9657,-2.85349 10.6546,-5.3897 10.546,-5.48023 -0.1178,-0.19008 -3.5306,0.9244 -7.5138,2.39216 -27.0133,9.8937 -46.1695,14.55234 -67.7797,16.52271 -14.5398,1.32571 -18.8583,1.3178 -26.2916,0.18808 -16.8041,-2.58484 -28.2315,-8.97362 -35.0244,-19.60072 -3.61394,-5.49454 -3.75893,-5.98339 -4.91197,-18.63096 -1.09872,-12.05001 -0.94528,-13.67064 1.25243,-22.60711 9.47794,-38.11808 42.70064,-86.73556 92.85354,-135.79214 6.0824,-5.97699 12.7169,-12.50637 14.7444,-14.4987 1.9279,-1.98326 -1.8377,0.77004 -8.5903,6.00483 -31.8528,25.09593 -69.0204,49.17021 -94.32201,61.31783 -13.37938,6.34104 -31.43952,13.10888 -42.71946,16.04525 -9.42419,2.36549 -29.16953,3.86457 -36.79293,2.85261 -14.04268,-2.03331 -25.79629,-9.79814 -31.19501,-20.55236 -3.79546,-7.4863 -6.03624,-24.3525 -4.77176,-35.81467 2.3573,-21.50288 13.51181,-53.34726 28.40672,-80.51194 7.47459,-13.83586 7.01297,-13.39211 -4.30855,3.40528 -17.57497,26.4049 -40.85423,50.81953 -58.26148,61.44401 -11.69528,7.19165 -19.29961,9.69247 -29.50294,10.12071 -10.61068,0.36497 -17.77269,-2.19529 -25.6512,-9.30931 -9.85268,-8.94229 -16.94503,-21.75122 -22.25543,-40.34584 -3.27143,-11.65108 -7.65624,-56.43795 -7.03557,-71.65718 1.30487,-29.741345 5.04401,-63.620816 9.67296,-87.740767 1.29288,-6.745254 2.28732,-12.3587479 2.07905,-12.4401681 -0.10908,-0.090415 -2.18916,6.8269821 -4.61315,15.4828291 -18.06296,64.00454 -40.74736,112.564906 -66.37019,142.113556 -16.80733,19.40629 -34.96609,29.4968 -49.87774,27.84396 -23.63961,-2.6645 -41.54448,-25.03112 -53.74188,-67.3986 -3.661,-12.6197 -8.08473,-33.604723 -8.91102,-42.667127 -1.02606,-11.25332 -2.36491,-7.215069 -1.7911,5.686123 0.54745,15.916044 -0.62384,37.210364 -3.01917,51.687664 -5.76663,35.87181 -18.74396,56.53551 -38.99524,62.39857 -7.6316,2.20206 -18.07066,1.14557 -28.38377,-2.93485 -35.39389,-13.743 -76.91789,-63.87969 -113.2874,-136.778444 -4.90965,-9.794667 -9.33015,-18.629772 -10.02755,-19.670749 -0.96014,-1.719919 -0.95106,-1.620332 -0.26244,0.425591 z M 655.38078,330.82919 c 117.6441,7.24774 218.12358,86.15004 252.22194,198.01599 5.77226,19.25541 8.43771,33.07045 10.55335,56.27421 2.80581,30.77234 1.67995,52.56459 -4.08876,80.70464 -9.50289,46.65561 -28.49588,86.14332 -59.07809,122.97235 -21.44097,25.85365 -41.99693,43.79427 -69.29802,60.442 -75.04193,45.90354 -164.86933,54.09375 -246.97558,22.51865 -29.86174,-11.43576 -53.32326,-25.36296 -79.18601,-46.90358 -49.02698,-41.01775 -80.74664,-93.75542 -94.70617,-157.65184 -2.76471,-12.70143 -6.14252,-49.74776 -5.72047,-62.73975 2.07457,-63.14924 23.1178,-120.89855 61.35649,-168.46716 13.98315,-17.34132 26.03022,-29.48537 42.48607,-42.83472 33.75348,-27.37795 72.20807,-46.1472 112.93768,-55.38365 17.70772,-4.0245 17.90689,-4.04266 42.63169,-5.99576 17.34628,-1.38076 26.97018,-1.55534 36.86588,-0.95138 z"
       id="path4-4-9"
       style="fill:#ffcc00;stroke:none;stroke-width:0.1" />
    <path
       d="m 615.5,339.6 c -1.6,0.2 -8.2,1.1 -14.5,2 -55.4,7.5 -107.9,33.2 -148.9,72.9 -33.1,32.1 -56,68.6 -69.9,111.5 -9.3,28.8 -12.6,50.8 -12.6,83.5 0.1,26.6 1.7,41.2 7.3,64 25.2,102.5 109.2,181.9 212.5,201 50.9,9.4 103,4.4 149.9,-14.4 83.1,-33.2 144.8,-105.5 164.1,-192.3 4.8,-21.4 6,-33.5 6,-58.8 0,-25.2 -1.2,-37.2 -6,-59 -21.8,-98.8 -99.8,-178.8 -197.9,-203.1 -22.9,-5.7 -34.7,-7.1 -62,-7.4 -13.7,-0.2 -26.3,-0.1 -28,0.1 z"
       id="path6"
       style="fill:#d45500;stroke:none;stroke-width:0.1" />
  </g>
</svg>
