<?xml version="1.0" encoding="UTF-8" standalone="no"?>
<svg
   version="1.0"
   width="1276.000000pt"
   height="1280.000000pt"
   viewBox="0 0 1276.000000 1280.000000"
   preserveAspectRatio="xMidYMid meet"
   id="svg12"
   sodipodi:docname="Tierra4.svg"
   inkscape:version="1.2.1 (9c6d41e410, 2022-07-14)"
   xmlns:inkscape="http://www.inkscape.org/namespaces/inkscape"
   xmlns:sodipodi="http://sodipodi.sourceforge.net/DTD/sodipodi-0.dtd"
   xmlns="http://www.w3.org/2000/svg"
   xmlns:svg="http://www.w3.org/2000/svg">
  <defs
     id="defs16" />
  <sodipodi:namedview
     id="namedview14"
     pagecolor="#ffffff"
     bordercolor="#000000"
     borderopacity="0.25"
     inkscape:showpageshadow="2"
     inkscape:pageopacity="0.0"
     inkscape:pagecheckerboard="0"
     inkscape:deskcolor="#d1d1d1"
     inkscape:document-units="pt"
     showgrid="false"
     showguides="false"
     inkscape:zoom="0.47695313"
     inkscape:cx="801.96559"
     inkscape:cy="244.2588"
     inkscape:window-width="1920"
     inkscape:window-height="1001"
     inkscape:window-x="-9"
     inkscape:window-y="-9"
     inkscape:window-maximized="1"
     inkscape:current-layer="svg12" />
  <metadata
     id="metadata2">
Created by potrace 1.15, written by Peter Selinger 2001-2017
</metadata>
  <g
     id="g299"
     transform="translate(-338.59091,-347.10565)">
    <g
       transform="matrix(0.05003275,-0.01407828,-0.0144849,-0.05147786,113.11621,768.15496)"
       fill="#000000"
       stroke="none"
       id="g10"
       style="fill:#008000">
      <path
         d="M 6085,12793 C 5305,12748 4664,12608 4000,12340 2828,11866 1827,11058 1108,10005 563,9207 202,8277 65,7316 17,6978 6,6797 6,6395 6,5999 17,5828 66,5490 328,3644 1384,2003 2958,997 3836,436 4801,112 5880,18 c 218,-19 821,-16 1045,5 438,42 832,116 1215,227 1708,494 3133,1684 3930,3280 224,450 349,786 495,1340 145,548 189,888 189,1460 1,415 -22,698 -90,1105 -226,1363 -858,2582 -1836,3540 -774,760 -1678,1286 -2723,1585 -548,157 -744,190 -1390,230 -137,9 -508,11 -630,3 z m 522,-43 h 63 l -51,-96 c -51,-95 -52,-96 -62,-225 -6,-76 -6,-134 -1,-139 10,-10 176,-61 181,-56 2,2 11,42 20,89 16,81 20,90 64,133 l 47,46 319,-142 c 175,-79 365,-166 423,-195 l 105,-52 263,21 262,22 73,72 c 40,40 75,72 79,72 3,0 174,-81 380,-180 l 373,-180 h 168 169 l 96,-57 c 296,-173 640,-420 922,-662 113,-97 322,-293 317,-297 -2,-2 -79,25 -173,60 -408,152 -682,286 -817,398 l -48,40 -371,29 -372,30 -83,-83 c -46,-45 -83,-89 -83,-98 1,-8 18,-55 39,-105 l 38,-90 71,-3 c 40,-2 72,-6 73,-10 0,-4 6,-63 13,-132 7,-69 12,-126 12,-127 -1,-1 -55,30 -120,69 -93,55 -120,68 -127,57 -5,-8 -41,-72 -81,-142 -63,-112 -75,-127 -93,-122 -11,4 -47,9 -80,12 -33,2 -69,8 -80,13 -11,5 -31,10 -45,12 -18,2 -30,14 -43,41 -20,41 -27,42 -108,27 -36,-7 -63,-20 -84,-40 l -30,-29 -45,34 c -43,33 -49,35 -128,35 -89,0 -84,3 -106,-67 -6,-19 -2,-22 44,-28 l 50,-7 -45,-56 c -41,-53 -43,-58 -30,-79 21,-31 20,-33 -23,-33 -49,0 -171,31 -256,65 -74,30 -154,34 -206,12 -42,-17 -103,-76 -234,-225 l -99,-114 79,-79 79,-79 h 57 c 32,0 92,-10 133,-22 64,-19 76,-26 84,-50 11,-32 24,-33 204,-21 l 98,6 117,93 c 123,99 123,99 283,126 65,11 66,11 173,-32 98,-39 112,-42 164,-36 154,18 175,19 168,8 -10,-16 21,-82 80,-172 27,-41 72,-130 100,-196 29,-67 75,-155 102,-197 45,-66 52,-83 59,-148 8,-71 9,-74 33,-72 14,2 80,-2 148,-8 68,-6 125,-9 128,-6 3,2 -12,31 -32,63 -27,44 -55,71 -110,108 -61,42 -75,57 -90,95 -9,25 -48,126 -86,224 -39,98 -68,180 -66,181 1,2 23,11 48,20 52,20 51,21 100,-74 16,-30 51,-89 79,-129 49,-74 52,-76 168,-135 l 118,-61 5,-86 c 8,-130 24,-150 170,-204 l 115,-42 85,45 c 121,64 122,65 149,115 l 25,45 -42,56 -43,56 h 109 110 l 85,-93 c 83,-90 88,-94 231,-165 118,-58 146,-76 142,-90 -2,-9 -7,-44 -11,-76 l -7,-59 88,-88 88,-89 -34,-35 c -19,-19 -37,-35 -42,-35 -23,0 -402,177 -515,241 l -132,74 -223,-12 c -123,-7 -242,-15 -264,-18 l -41,-6 4,-92 c 2,-51 6,-102 8,-113 3,-15 56,-55 168,-128 132,-86 197,-120 340,-180 154,-64 447,-221 463,-247 3,-5 0,-55 -6,-111 -11,-94 -17,-112 -64,-200 -28,-54 -54,-98 -59,-98 -4,0 -43,24 -87,53 -55,37 -134,110 -262,243 l -183,189 -51,1 c -49,0 -55,3 -207,123 l -157,122 -72,-3 -72,-3 -21,-85 -21,-85 -35,3 c -64,6 -69,10 -70,55 0,23 -3,50 -7,59 -4,9 -135,112 -292,228 -157,116 -284,214 -283,216 0,3 30,38 66,78 63,70 68,74 146,96 45,12 81,26 81,30 0,3 -21,38 -48,76 l -47,69 -54,3 c -49,3 -65,11 -172,85 l -119,81 -115,-28 -115,-28 -72,58 c -39,33 -106,88 -147,122 l -76,64 -97,-6 c -147,-8 -290,14 -423,64 l -110,42 -135,-12 -135,-12 -145,-102 -145,-102 -135,-23 c -123,-20 -141,-26 -205,-66 -38,-24 -104,-53 -145,-65 -70,-20 -77,-25 -115,-76 l -40,-55 -126,6 -125,6 -135,-121 c -86,-78 -136,-131 -141,-148 -4,-15 -23,-99 -44,-188 l -37,-160 -132,-140 c -128,-135 -132,-141 -148,-206 -10,-39 -17,-107 -17,-162 0,-91 2,-101 50,-221 64,-161 146,-325 328,-658 l 147,-267 57,-35 c 54,-32 67,-35 166,-41 l 107,-7 138,-109 c 97,-75 147,-108 165,-108 15,0 117,-7 227,-15 110,-8 205,-15 210,-15 6,0 26,-25 45,-56 l 34,-56 52,7 52,6 92,-107 93,-106 41,5 c 23,3 59,9 82,12 l 40,7 26,-179 25,-178 -63,-89 c -35,-49 -97,-118 -137,-153 l -74,-64 29,-167 c 15,-93 39,-302 52,-470 25,-302 25,-302 5,-372 -38,-137 -38,-137 -169,-224 l -119,-79 -143,-426 -142,-426 44,-217 44,-217 -28,-187 -28,-188 -88,-115 -88,-116 -7,-114 c -5,-77 -15,-137 -30,-182 l -23,-67 88,-26 88,-26 100,45 99,45 h 124 124 l 208,-67 209,-67 131,66 c 73,37 230,125 349,196 l 217,129 107,11 c 59,7 111,17 115,23 3,6 12,84 20,172 l 13,161 57,66 58,67 98,12 c 157,20 163,22 262,105 l 92,76 h 78 78 l 279,250 c 314,282 288,245 319,450 9,58 26,153 39,212 23,106 24,108 131,266 l 107,159 67,7 c 36,3 83,6 105,6 24,0 81,19 155,51 98,44 150,77 341,217 l 226,165 74,126 c 133,227 180,309 180,318 0,5 -34,21 -75,36 l -75,26 -38,-40 -37,-40 -93,75 c -117,95 -111,91 -120,65 -6,-14 -12,21 -20,111 -8,88 -9,138 -2,150 23,44 12,74 -53,142 -73,75 -113,151 -182,338 -43,116 -47,137 -61,291 -12,138 -12,177 -1,230 8,43 11,99 6,169 -6,109 -2,444 7,516 l 5,41 75,-17 c 41,-10 78,-21 81,-24 4,-4 -4,-109 -18,-234 l -25,-227 48,-104 48,-103 v -177 c 0,-268 18,-395 80,-579 l 52,-152 121,-153 c 66,-83 121,-154 123,-155 1,-2 27,15 57,37 53,41 54,41 143,41 l 89,1 285,315 285,315 17,82 c 9,45 17,89 18,98 0,18 -61,105 -203,289 -104,134 -110,137 -193,77 -30,-21 -58,-36 -62,-33 -3,4 -11,47 -18,97 -10,75 -20,103 -56,167 -36,63 -48,76 -65,74 -15,-2 -28,6 -39,23 -14,21 -15,40 -10,113 4,48 13,114 19,146 12,59 12,60 75,94 35,19 64,33 66,31 10,-14 110,-299 128,-368 l 23,-84 135,-116 c 74,-64 207,-185 295,-270 l 159,-154 44,-141 c 25,-77 59,-211 76,-296 l 32,-155 69,-27 70,-26 -3,-199 c -2,-109 -15,-373 -28,-587 -14,-214 -24,-390 -22,-391 2,-1 22,-12 46,-24 23,-12 42,-26 42,-31 0,-31 -108,-393 -166,-556 C 12101,3597 11756,2978 11303,2412 10364,1240 9034,438 7565,156 7166,80 6815,48 6375,48 5915,48 5558,82 5144,165 l -162,32 -95,99 c -52,55 -105,112 -118,127 -25,29 -40,34 -1434,469 l -260,81 -170,112 C 2178,1563 1567,2175 1087,2906 l -106,161 -52,368 c -51,367 -52,368 -89,434 -21,36 -50,109 -66,160 l -28,94 17,136 c 12,99 21,139 33,146 8,6 43,28 77,50 l 61,40 -2,55 c -1,30 -5,105 -8,165 l -5,110 105,77 106,78 v 107 108 l 241,315 c 132,173 244,319 249,324 6,6 46,-2 102,-19 l 93,-27 39,44 c 25,27 141,231 301,528 l 261,484 144,29 144,29 41,46 c 80,91 77,84 65,157 -9,53 -28,100 -98,230 l -87,162 -120,75 -120,75 -3,185 -2,184 -178,95 -177,94 2,244 3,244 40,74 41,74 -40,66 c -38,63 -46,70 -148,127 l -108,61 -24,105 -24,105 17,182 c 10,100 14,188 9,196 -12,20 -224,297 -227,297 -2,0 -72,-27 -155,-60 -148,-58 -155,-60 -247,-60 -52,0 -94,2 -94,5 0,11 141,215 242,350 332,445 743,865 1177,1203 185,144 174,139 301,141 85,2 151,-5 290,-30 l 181,-32 37,36 c 22,21 47,62 60,97 18,46 43,81 101,142 l 77,81 83,5 c 72,4 91,9 139,38 66,40 192,90 259,103 27,6 181,20 343,32 l 295,21 31,30 c 17,16 53,56 80,89 48,58 50,59 99,59 69,-1 194,-18 227,-31 15,-6 29,-22 33,-37 3,-14 16,-39 27,-55 16,-22 19,-39 16,-77 -5,-44 -3,-48 12,-40 10,5 62,56 115,112 87,93 105,119 184,268 l 88,165 69,7 c 38,4 103,10 145,13 l 76,6 46,82 47,82 -43,6 -42,6 50,3 c 208,12 399,17 505,14 69,-2 153,-4 187,-4 z M 223,7247 c 37,-149 87,-376 111,-503 l 44,-231 -8,-219 -8,-219 94,-171 c 52,-93 94,-175 94,-182 0,-6 -21,-85 -46,-174 l -46,-163 -11,-300 -10,-301 61,-174 c 64,-181 87,-284 156,-696 l 32,-192 60,-98 c 45,-74 74,-140 120,-276 34,-99 58,-176 53,-171 -14,15 -137,240 -207,380 -346,692 -555,1420 -637,2218 -43,416 -37,982 15,1400 23,178 51,345 59,345 3,0 37,-123 74,-273 z"
         id="path4"
         style="fill:#008000" />
      <path
         d="m 8225,11360 10,-130 -85,-97 c -59,-67 -95,-118 -113,-162 -15,-35 -26,-65 -24,-67 4,-5 461,17 466,22 7,6 -39,152 -79,254 -21,52 -43,131 -50,175 -7,44 -16,86 -20,94 -7,13 -78,40 -105,41 -7,0 -7,-42 0,-130 z"
         id="path6"
         style="fill:#008000" />
      <path
         d="m 9968,3259 -137,-110 -163,-11 -163,-11 -87,-66 c -85,-64 -88,-68 -118,-146 -30,-77 -36,-84 -136,-173 -106,-95 -138,-112 -206,-112 -42,0 -45,-5 -22,-38 15,-21 13,-25 -45,-90 l -61,-67 v -82 c 0,-83 0,-83 26,-83 33,0 335,30 350,35 6,2 139,146 295,320 156,175 302,338 324,362 37,41 46,45 110,55 69,11 71,11 153,92 45,44 82,85 82,91 0,17 -51,145 -58,145 -4,-1 -69,-50 -144,-111 z"
         id="path8"
         style="fill:#008000" />
    </g>
    <path
       style="fill:#000080;stroke:#ff2a2a;stroke-width:0.829029"
       d="m 410.34163,680.8582 c -9.0366,1.96275 -26.71741,4.53829 -38.54889,5.61523 l -12.22185,1.11245 -7.26825,-4.72262 -7.26827,-4.7226 -13.14345,-0.72128 c -7.2289,-0.39672 -27.97528,-1.25963 -46.10306,-1.91758 -31.64919,-1.14875 -33.27934,-1.3037 -41.00199,-3.89777 -10.97218,-3.68564 -31.32622,-11.82951 -40.25772,-16.10753 -26.77056,-12.82265 -56.09942,-32.47776 -79.94175,-53.57401 l -6.43917,-5.69755 -7.98173,-18.26567 c -6.24785,-14.29779 -8.64691,-19.01284 -11.043769,-21.70521 -6.241287,-7.01073 -8.011869,-10.45626 -9.008097,-17.52965 -0.49857,-3.53999 -0.803586,-6.81314 -0.677786,-7.27364 0.125778,-0.46055 1.50733,-2.4169 3.070106,-4.34741 l 2.841394,-3.5101 -2.899776,-8.21574 -2.899781,-8.21579 4.122063,-5.36131 4.122053,-5.3613 -1.548725,-5.50401 -1.548736,-5.50405 7.661334,-20.031 c 4.21373,-11.01705 8.04768,-20.13546 8.51989,-20.26312 0.4722,-0.12768 2.74592,-0.17877 5.05271,-0.11359 3.25211,0.0919 4.38569,-0.16762 5.04674,-1.15546 1.18304,-1.76784 4.30917,-14.63204 9.52744,-39.20587 2.44147,-11.49742 4.75034,-21.4288 5.1308,-22.06974 0.38046,-0.64092 3.53387,-2.60648 7.00753,-4.36788 6.45001,-3.27063 7.21589,-4.14126 9.34007,-10.61776 0.91283,-2.78314 -1.60225,-7.06077 -9.08998,-15.46017 -6.16835,-6.91935 -6.32611,-7.02725 -13.65098,-9.33741 l -7.41052,-2.33717 -2.65519,-9.43628 -2.65519,-9.43627 -10.22497,-2.39241 -10.224962,-2.39241 -3.4381,-12.60645 C 89.349592,292.17585 89.240319,291.411 90.232482,287.41674 l 1.03951,-4.18488 -3.331775,-3.06756 c -2.414959,-2.22342 -4.983002,-3.48537 -9.332287,-4.58589 -6.295063,-1.59288 -6.450938,-1.73527 -10.377759,-9.47963 -0.676989,-1.33515 -2.039478,-6.77022 -3.027751,-12.07792 l -1.796866,-9.65038 -8.229591,-6.33723 -8.22958,-6.33724 -3.600113,2.82474 c -7.917936,6.2126 -11.695871,8.48811 -15.372484,9.25908 l -3.762829,0.78905 3.608072,-10.62452 c 7.114829,-20.95072 16.168064,-41.15655 26.872051,-59.97554 6.763337,-11.89079 17.175963,-27.76171 22.31694,-34.01544 3.251091,-3.95478 3.908921,-4.37381 9.13514,-5.81889 3.097464,-0.85651 9.718863,-1.95892 14.7142,-2.4499 10.46887,-1.02895 10.63716,-1.14978 12.02766,-8.63589 0.42799,-2.30417 1.90147,-6.55158 3.27438,-9.43866 2.22343,-4.6756 2.84229,-5.34661 5.66311,-6.14034 1.98449,-0.55839 5.37304,-2.77554 9.07575,-5.93827 7.55437,-6.452705 10.35062,-7.893524 27.03104,-13.928204 l 13.73267,-4.968251 3.12706,-6.023537 3.12707,-6.023537 4.46751,-0.718842 c 2.45711,-0.395369 5.4739,-0.795254 6.70397,-0.888624 2.7921,-0.21196 6.77107,3.516141 7.85172,7.356679 0.4313,1.532796 1.10325,2.697124 1.49323,2.587392 1.99902,-0.562487 8.27474,-15.826681 10.05273,-24.450882 2.05347,-9.960503 2.45836,-10.518044 8.96826,-12.349807 5.92638,-1.667571 7.23579,-2.921019 8.42655,-8.066394 0.88602,-3.828612 1.6346,-5.157012 3.42892,-6.084851 3.28387,-1.698097 32.15223,-9.718164 31.99744,-8.889385 -1.56578,8.383941 -1.64124,11.414042 -0.43808,17.592222 l 1.33013,6.830214 2.97471,0.376268 c 1.63608,0.206955 4.15391,0.307299 5.59516,0.222996 2.59316,-0.15169 2.61798,-0.200861 2.38187,-4.720157 -0.14878,-2.847976 0.37125,-5.770179 1.38166,-7.763899 l 1.62024,-3.197034 14.81594,2.376347 c 8.14878,1.306987 18.87754,3.101968 23.84166,3.988846 l 9.02574,1.612472 12.97447,-4.896627 12.97448,-4.896614 2.58468,-4.639416 2.58467,-4.639432 21.69978,3.980946 21.69979,3.980943 8.32997,-2.343896 8.32996,-2.343894 9.33945,2.739407 c 10.28648,3.017226 30.48381,10.39046 40.30257,14.712895 9.20738,4.053287 28.66668,13.977663 28.39375,14.480995 -0.41339,0.762307 -21.45352,-1.582999 -32.5571,-3.629103 -5.9102,-1.08908 -13.71947,-3.043417 -17.35395,-4.342993 l -6.60819,-2.362845 -18.84485,3.651817 -18.84482,3.651809 -3.0026,5.455678 c -1.65147,3.000639 -2.84944,6.000186 -2.6622,6.665644 0.18725,0.665467 1.72868,3.095201 3.42535,5.399403 l 3.08487,4.189462 3.62811,-1.020881 3.62814,-1.02089 2.15021,5.637603 c 1.18263,3.100671 2.05069,5.821141 1.92904,6.045488 -0.12165,0.224347 -2.72374,-0.280235 -5.78237,-1.121287 -3.05868,-0.841058 -6.03202,-1.394087 -6.60745,-1.228941 -0.57543,0.165034 -1.66072,3.123978 -2.4118,6.575223 -2.1914,10.069673 -1.81505,9.584341 -7.98176,10.293138 -4.08206,0.469177 -5.91516,0.237982 -7.75378,-0.97798 -2.09759,-1.387187 -2.84757,-1.411827 -5.81931,-0.19116 -1.87628,0.770683 -3.89411,2.194254 -4.48403,3.163471 -1.00536,1.651825 -1.2675,1.704901 -4.18465,0.847268 -4.20776,-1.237079 -10.38107,0.439171 -10.90642,2.961437 -0.6206,2.97948 0.16581,4.24387 2.42732,3.90265 l 2.11817,-0.3196 -1.04736,2.61643 c -0.57606,1.43902 -0.83292,3.37856 -0.57082,4.31007 0.64368,2.28757 -1.66595,2.85849 -10.09112,2.49443 -8.3693,-0.36166 -13.67208,1.00237 -16.13697,4.15085 -0.99696,1.27343 -3.75652,6.41754 -6.13238,11.43134 l -4.31973,9.11601 5.41513,3.18439 c 4.23771,2.492 5.94589,3.03505 7.85617,2.49753 3.57851,-1.00693 11.26366,-0.65294 12.15013,0.55963 0.59317,0.81135 2.44126,0.57605 8.19779,-1.04373 l 7.43196,-2.09121 4.04644,-5.82606 c 5.0239,-7.23341 5.7067,-7.88547 11.03998,-10.54275 3.92324,-1.95474 4.83966,-2.09501 10.17086,-1.55691 4.98386,0.50306 6.66436,0.29213 11.24959,-1.41199 l 5.39048,-2.00338 2.61753,2.9475 c 6.97197,7.85086 19.32572,21.2491 21.35724,23.16298 1.25319,1.18059 2.98084,3.64343 3.83928,5.47295 1.82027,3.87939 2.85827,4.00814 12.2879,1.52406 5.71631,-1.50582 5.74846,-1.52858 4.37494,-3.09319 -0.76105,-0.86691 -4.26918,-3.12291 -7.79588,-5.01335 -6.15242,-3.2979 -6.68803,-3.81964 -13.21972,-12.87807 l -6.80753,-9.44089 1.82276,-1.3001 c 1.44239,-1.02878 2.07945,-1.04683 3.05289,-0.0865 0.67656,0.6675 3.65871,3.42471 6.62702,6.12711 4.97396,4.52841 5.92717,5.01908 12.1626,6.26112 l 6.76569,1.34766 0.94104,3.34435 c 2.06915,7.35356 4.33072,8.85419 14.33998,9.51509 l 4.6807,0.30907 4.26514,-4.45098 c 2.34583,-2.44805 4.63193,-5.77524 5.08024,-7.39378 0.80816,-2.91759 0.79664,-2.95663 -1.34518,-4.5639 -1.1882,-0.89163 -2.22103,-1.83688 -2.29523,-2.10057 -0.0742,-0.26369 1.85971,-1.04068 4.29758,-1.72665 4.39232,-1.23592 4.49727,-1.21206 11.59265,2.63464 4.72729,2.56287 9.3902,4.29221 13.72316,5.08957 l 6.56292,1.20771 0.6721,4.17302 c 0.67099,4.16651 0.68083,4.17815 6.28122,7.46393 5.48465,3.21785 5.58419,3.33188 4.48534,5.13727 -1.07638,1.76847 -1.39778,1.80836 -7.61691,0.94553 -3.57121,-0.49547 -11.97624,-2.10463 -18.67786,-3.57589 l -12.18476,-2.67502 -11.45726,4.13604 c -6.3015,2.27482 -12.1372,4.32736 -12.96822,4.56119 -1.33183,0.37475 -1.33906,1.03595 -0.0611,5.5776 1.11637,3.96747 1.9569,5.533 3.65476,6.8071 3.26241,2.44825 17.43811,6.45433 30.24751,8.548 6.19648,1.01281 14.32084,2.67972 18.0542,3.70422 l 6.78789,1.86275 1.04668,5.25973 c 0.9426,4.73684 0.28717,12.7701 -1.29956,15.92787 -0.83831,1.66834 -8.20521,-1.52856 -20.81336,-9.03201 -10.4324,-6.2086 -12.6927,-7.23138 -14.72015,-6.6609 -1.78781,0.50306 -4.92555,-0.38264 -12.37245,-3.49244 -7.52093,-3.14071 -10.55523,-3.99228 -12.32525,-3.45907 -4.11062,1.23831 -5.11411,2.58634 -4.93958,6.63542 0.13788,3.19811 -0.15985,3.93941 -1.86753,4.6498 -1.69506,0.70512 -2.21526,0.48968 -3.14002,-1.30039 -0.60965,-1.18003 -1.53823,-2.61424 -2.06352,-3.18713 -0.77081,-0.8407 -24.88622,-11.20546 -32.45388,-13.94866 -1.83015,-0.66341 -1.81211,-0.83621 0.5614,-5.37298 1.57846,-3.01711 3.67079,-5.5275 5.87144,-7.04466 1.88052,-1.29644 3.36121,-2.56289 3.29045,-2.81434 -0.0707,-0.25145 -1.55066,-1.77682 -3.28868,-3.38969 -2.59538,-2.40852 -3.72514,-2.87065 -6.32242,-2.58619 -1.73927,0.19047 -6.37805,-0.70921 -10.30835,-1.9993 l -7.146,-2.34564 -5.35487,3.01114 -5.35489,3.01117 -4.1069,-1.87207 c -2.25878,-1.02963 -6.23113,-2.85051 -8.8274,-4.04641 l -4.72055,-2.17435 -9.67035,2.32685 c -7.81474,1.88035 -10.93058,2.23446 -16.23758,1.84536 -4.17556,-0.30614 -8.11653,-0.0265 -10.8216,0.76771 -8.29505,2.43557 -10.70582,4.10399 -16.29175,11.27478 -4.76733,6.11993 -5.93116,7.12145 -11.54473,9.93458 -3.4336,1.72068 -7.93272,4.74105 -9.99805,6.71193 -2.06532,1.97087 -4.95448,4.39642 -6.42034,5.39011 -1.46587,0.99367 -3.33588,3.38791 -4.15559,5.3205 l -1.49038,3.51382 -6.36617,1.47175 -6.36615,1.47173 -4.94552,8.16813 -4.94552,8.16812 0.52579,10.10121 0.5258,10.10122 -4.38084,8.86148 c -2.40947,4.87382 -4.46749,10.1742 -4.57339,11.77863 -0.10591,1.60443 0.58995,5.77478 1.54637,9.26741 1.37552,5.02321 2.48937,7.35689 5.3299,11.16704 4.68449,6.28351 16.03322,19.09163 28.05888,31.66713 11.07169,11.57792 12.6595,12.35722 21.98152,10.7887 5.25598,-0.88437 6.16979,-0.74359 12.38514,1.90812 9.33086,3.9809 10.23756,4.07535 19.72004,2.05424 13.61234,-2.90135 14.38335,-2.91133 17.12502,-0.22159 2.15316,2.11238 2.6589,2.23615 4.78316,1.17054 2.20364,-1.10545 2.83564,-0.88745 8.73982,3.01515 l 6.36443,4.20677 3.61329,-1.66508 c 1.9873,-0.91579 3.72954,-1.6052 3.87162,-1.53202 0.1421,0.0732 1.90451,3.85287 3.91648,8.39932 l 3.65813,8.26624 -1.05163,3.14864 c -0.5784,1.73173 -2.62546,6.20906 -4.54902,9.94961 l -3.49739,6.80102 3.60357,8.01981 c 4.17266,9.28632 12.70056,31.36023 14.26907,36.93455 1.29605,4.60602 1.06418,10.68985 -0.52816,13.85823 -0.64278,1.279 -2.84193,4.26762 -4.88693,6.64136 l -3.71824,4.31592 -0.95014,24.15528 -0.95017,24.15524 5.367,10.72178 5.367,10.72178 1.28005,9.81921 c 1.27288,9.76411 1.26509,9.85839 -1.38762,16.80159 -2.57243,6.73317 -2.62409,7.23101 -1.44741,13.94765 0.67113,3.83088 1.12665,8.09818 1.01226,9.48295 -0.30782,3.72649 -0.1746,3.85703 4.21872,4.13374 5.33093,0.33575 6.11032,0.0577 10.39548,-3.70802 2.98838,-2.62615 4.85754,-3.54375 10.42305,-5.11678 5.78968,-1.63638 8.39686,-1.84648 17.8238,-1.43623 l 11.04212,0.48054 4.40799,-4.04227 c 2.42441,-2.2233 9.12091,-9.01853 14.88118,-15.10054 8.92632,-9.42491 11.14652,-11.33934 15.03188,-12.96163 2.50729,-1.04687 4.87567,-2.37118 5.26308,-2.94289 0.39314,-0.58022 -0.0515,-4.66592 -1.00642,-9.24719 -1.66975,-8.01083 -1.66197,-8.31309 0.32272,-12.60208 1.91745,-4.14357 2.32808,-4.51328 7.195,-6.47706 5.99492,-2.41894 6.68379,-2.99235 11.30595,-9.41105 3.00176,-4.16849 3.96571,-4.94579 7.29498,-5.88258 l 3.83612,-1.07942 9.7078,-15.83051 c 5.33929,-8.70675 9.94798,-17.0696 10.24148,-18.58408 0.29353,-1.51452 0.0553,-7.09997 -0.52949,-12.41217 -1.39931,-12.71244 -1.22034,-14.94164 2.02845,-25.26283 l 2.7497,-8.73577 5.59118,-2.20295 c 7.64107,-3.0106 13.16019,-8.06825 23.93765,-21.93612 l 8.81904,-11.34791 3.19809,-13.08223 c 1.7589,-7.19521 3.10107,-13.42687 2.98254,-13.84813 -0.21912,-0.77872 -6.51746,-1.80307 -8.19101,-1.33217 -0.50426,0.14189 -1.48736,1.23602 -2.18469,2.43138 l -1.26788,2.17341 -6.81185,-2.73902 -6.81184,-2.73903 -1.98651,-7.46277 -1.98649,-7.46278 -4.87398,-3.71037 c -7.36589,-5.60741 -13.68772,-13.49887 -18.02992,-22.5066 -2.43687,-5.0551 -13.28917,-42.94346 -14.37503,-50.18716 l -0.60753,-4.05277 2.99109,-0.26261 c 1.64507,-0.14444 3.39172,-0.0388 3.88146,0.2347 0.5148,0.28749 1.76259,5.52765 2.95792,12.42167 l 2.06754,11.92435 3.17396,3.47476 c 2.88546,3.15891 3.66342,4.8855 8.55834,18.99433 4.94541,14.25432 5.81851,16.18081 10.70923,23.63052 4.83209,7.36029 6.07884,8.66686 13.47144,14.11759 4.48061,3.30365 8.29887,6.09699 8.48508,6.20743 0.18618,0.11044 1.42202,-1.12178 2.74631,-2.73829 1.8684,-2.2807 3.37998,-3.21386 6.74757,-4.16566 l 4.33986,-1.22635 9.61962,-20.12669 c 7.6825,-16.0738 9.6075,-20.88017 9.55965,-23.86856 -0.11006,-6.87505 -0.64385,-7.71013 -9.3297,-14.59567 -12.48324,-9.89584 -13.71295,-10.29788 -17.33734,-5.66833 -1.99994,2.55457 -1.95025,2.59074 -4.77615,-3.47504 -1.92316,-4.12808 -6.89715,-9.26493 -9.32625,-9.63168 -1.71682,-0.25921 -2.12604,-0.90098 -3.29183,-5.16282 -2.19024,-8.00649 -2.1262,-10.8575 0.30464,-13.57314 1.1846,-1.32336 2.34068,-2.45869 2.56914,-2.52298 0.22845,-0.0643 3.57194,4.64721 7.42996,10.46997 l 7.01465,10.58684 5.99142,2.88399 c 3.29526,1.58619 11.64775,5.92988 18.56108,9.6526 l 12.56973,6.76859 5.07941,8.47993 c 2.79369,4.66396 6.38885,11.03763 7.98924,14.16371 1.60041,3.12608 3.00363,5.71436 3.11827,5.75174 0.11469,0.0374 1.78497,0.23922 3.71178,0.44855 l 3.5033,0.38063 3.45748,13.30763 c 1.90164,7.3192 5.17994,21.04781 7.28514,30.50805 l 3.82762,17.20034 2.54167,0.66278 c 1.39794,0.36449 2.61674,0.92089 2.70846,1.23636 0.0938,0.31493 0.0956,7.14353 0.009,15.17341 -1.51207,139.48548 -86.95583,263.11718 -213.88503,309.47784 -9.87278,3.60604 -33.67637,10.46774 -44.37205,12.79095 z M 533.53924,523.11416 c 8.14771,-2.99418 6.39464,-0.45613 19.90327,-28.81548 9.26443,-19.44925 10.13724,-20.94134 13.0711,-22.34556 2.34869,-1.12416 3.91168,-2.83111 6.17987,-6.74931 1.66986,-2.88457 2.89927,-5.73079 2.73206,-6.32506 -0.47548,-1.68978 -4.5944,-6.8971 -5.29873,-6.69892 -0.34771,0.0978 -3.02403,3.56006 -5.94735,7.69385 l -5.31509,7.51591 -8.03996,2.88301 c -7.9634,2.85556 -8.06962,2.92607 -11.15162,7.40075 -2.09089,3.03571 -3.38544,6.20267 -3.94622,9.6541 -1.08969,6.70627 -7.25816,16.4861 -11.71173,18.56835 -2.55722,1.19562 -2.88775,1.6446 -2.15102,2.92189 0.57988,1.00532 0.2853,2.89995 -0.88242,5.67527 -1.47701,3.51042 -1.57436,4.80063 -0.61851,8.19759 1.32205,4.69844 1.89067,5.19606 4.4514,3.89556 1.04118,-0.52874 4.96739,-2.09112 8.72495,-3.47195 z M 375.73553,87.904321 c 4.69364,-1.866484 4.83259,-1.273785 -2.89211,-12.337152 -2.56965,-3.680243 -5.39323,-8.310437 -6.27462,-10.289325 -1.63875,-3.679295 -3.71853,-5.536704 -5.60515,-5.005843 -0.5828,0.163988 -1.72192,0.23052 -2.53144,0.147869 -1.3376,-0.136568 -1.24294,0.467159 1.0379,6.618453 l 2.50979,6.768699 -2.63035,6.121695 c -2.48052,5.773069 -4.24424,12.359706 -3.7653,14.061797 0.21036,0.747608 11.66977,-2.713428 20.15128,-6.086193 z"
       id="path316" />
    <path
       style="fill:#000080;stroke:#ff2a2a;stroke-width:0.829029"
       d="M 98.563293,575.57144 C 59.005943,531.10611 32.721167,480.27422 19.16019,422.01454 c -2.151716,-9.24406 -4.060174,-17.94506 -4.241023,-19.33557 -0.180824,-1.39051 -0.942933,-6.98696 -1.693556,-12.43656 -0.750623,-5.4496 -1.237715,-9.83327 -1.082418,-9.74149 0.60113,0.35527 12.793162,22.6235 18.352162,33.51947 5.186168,10.16519 6.241298,12.90232 9.347675,24.24883 l 3.501593,12.79023 6.946948,7.38477 6.946959,7.38477 0.254355,9.57229 c 0.214511,8.07333 0.824377,11.94266 3.894486,24.70906 l 3.64015,15.13681 6.476748,9.97079 c 4.007365,6.16922 9.434779,16.13274 14.235227,26.13264 6.711121,13.98006 8.274341,16.66538 11.57952,19.89139 4.075694,3.97804 11.192914,13.39241 10.746704,14.21528 -0.14743,0.27188 -4.42353,-4.1767 -9.502466,-9.8858 z"
       id="path318" />
  </g>
</svg>
